<svg width="22" height="22" viewBox="0 0 22 22" fill="none" xmlns="http://www.w3.org/2000/svg">
<path d="M2.70852 20.667H12.624C13.3767 20.667 13.969 20.0426 13.819 19.305C13.405 17.2686 12.0526 13.667 7.66628 13.667C3.28003 13.667 1.92768 17.2686 1.5136 19.305C1.36362 20.0426 1.95586 20.667 2.70852 20.667Z" stroke="#3F3F55" stroke-width="1.5" stroke-linecap="round" stroke-linejoin="round"/>
<path d="M16 13.667C18.7717 13.667 19.9069 16.5309 20.3652 18.595C20.6127 19.7097 19.7111 20.667 18.5692 20.667H17.3333" stroke="#3F3F55" stroke-width="1.5" stroke-linecap="round" stroke-linejoin="round"/>
<path d="M7.66667 8.66634C9.69171 8.66634 11.3333 7.02472 11.3333 4.99967C11.3333 2.97463 9.69171 1.33301 7.66667 1.33301C5.64162 1.33301 4 2.97463 4 4.99967C4 7.02472 5.64162 8.66634 7.66667 8.66634Z" stroke="#3F3F55" stroke-width="1.5" stroke-linecap="round" stroke-linejoin="round"/>
<path d="M14.667 8.66634C16.6921 8.66634 18.0003 7.02471 18.0003 4.99967C18.0003 2.97463 16.6921 1.33301 14.667 1.33301" stroke="#3F3F55" stroke-width="1.5" stroke-linecap="round" stroke-linejoin="round"/>
</svg>
