<svg width="25" height="32" viewBox="0 0 25 32" fill="none" xmlns="http://www.w3.org/2000/svg">
<g clip-path="url(#clip0_81056_9667)">
<path d="M6.75 4.34766L7.59115 14.021C7.68102 15.0545 8.54622 15.8477 9.58363 15.8477H14.4164C15.4538 15.8477 16.319 15.0545 16.4088 14.021L17.25 4.34766" stroke="#AE1100" stroke-width="1.5" stroke-linecap="round" stroke-linejoin="round"/>
<path d="M9.75 4.09766V3.34766C9.75 2.24309 10.6454 1.34766 11.75 1.34766H12.25C13.3546 1.34766 14.25 2.24309 14.25 3.34766V4.09766" stroke="#AE1100" stroke-width="1.5" stroke-linecap="round" stroke-linejoin="round"/>
<path d="M5 4.34766H19" stroke="#AE1100" stroke-width="1.5" stroke-linecap="round" stroke-linejoin="round"/>
</g>
<path d="M1.064 28.5977C0.936 28.5977 0.834667 28.563 0.76 28.4937C0.690667 28.419 0.656 28.3203 0.656 28.1977V23.3577C0.656 23.235 0.690667 23.139 0.76 23.0697C0.834667 22.995 0.936 22.9577 1.064 22.9577H4.008C4.13067 22.9577 4.224 22.987 4.288 23.0457C4.35733 23.1043 4.392 23.187 4.392 23.2937C4.392 23.4003 4.35733 23.483 4.288 23.5417C4.224 23.595 4.13067 23.6217 4.008 23.6217H1.464V25.3977H3.848C3.97067 25.3977 4.064 25.427 4.128 25.4857C4.19733 25.5443 4.232 25.627 4.232 25.7337C4.232 25.8403 4.19733 25.923 4.128 25.9817C4.064 26.0403 3.97067 26.0697 3.848 26.0697H1.464V27.9337H4.008C4.264 27.9337 4.392 28.043 4.392 28.2617C4.392 28.3683 4.35733 28.451 4.288 28.5097C4.224 28.5683 4.13067 28.5977 4.008 28.5977H1.064ZM8.52769 27.9897C8.60769 28.0697 8.64769 28.163 8.64769 28.2697C8.64769 28.371 8.61035 28.459 8.53569 28.5337C8.46635 28.603 8.38102 28.6377 8.27969 28.6377C8.17835 28.6377 8.08502 28.5923 7.99969 28.5017L6.77569 27.1257L5.55969 28.5017C5.47435 28.5923 5.38102 28.6377 5.27969 28.6377C5.17835 28.6377 5.09035 28.6003 5.01569 28.5257C4.94635 28.451 4.91169 28.363 4.91169 28.2617C4.91169 28.1603 4.94902 28.0697 5.02369 27.9897L6.28769 26.5977L5.08769 25.2617C5.00769 25.171 4.96769 25.0803 4.96769 24.9897C4.96769 24.8883 5.00502 24.803 5.07969 24.7337C5.15435 24.659 5.23969 24.6217 5.33569 24.6217C5.43702 24.6217 5.53035 24.667 5.61569 24.7577L6.77569 26.0697L7.93569 24.7577C8.02102 24.667 8.11702 24.6217 8.22369 24.6217C8.31969 24.6217 8.40502 24.659 8.47969 24.7337C8.55435 24.803 8.59169 24.8883 8.59169 24.9897C8.59169 25.091 8.55169 25.1817 8.47169 25.2617L7.27169 26.5977L8.52769 27.9897ZM11.0367 28.6537C10.658 28.6537 10.3247 28.571 10.0367 28.4057C9.75402 28.2403 9.53269 28.0057 9.37269 27.7017C9.21802 27.3977 9.14069 27.0457 9.14069 26.6457C9.14069 26.2403 9.22069 25.883 9.38069 25.5737C9.54602 25.2643 9.77535 25.0243 10.0687 24.8537C10.362 24.683 10.698 24.5977 11.0767 24.5977C11.2794 24.5977 11.482 24.627 11.6847 24.6857C11.8927 24.7443 12.0767 24.8243 12.2367 24.9257C12.4074 25.043 12.4927 25.179 12.4927 25.3337C12.4927 25.4243 12.4687 25.5017 12.4207 25.5657C12.3727 25.6243 12.3114 25.6537 12.2367 25.6537C12.1887 25.6537 12.1407 25.643 12.0927 25.6217C12.0447 25.595 11.9834 25.5577 11.9087 25.5097C11.7754 25.4243 11.65 25.3603 11.5327 25.3177C11.4207 25.2697 11.2847 25.2457 11.1247 25.2457C10.762 25.2457 10.4794 25.3683 10.2767 25.6137C10.0794 25.859 9.98069 26.2003 9.98069 26.6377C9.98069 27.075 10.0794 27.4137 10.2767 27.6537C10.474 27.8883 10.754 28.0057 11.1167 28.0057C11.2767 28.0057 11.418 27.9817 11.5407 27.9337C11.6634 27.8857 11.7887 27.8217 11.9167 27.7417C11.9754 27.7043 12.034 27.6723 12.0927 27.6457C12.1514 27.619 12.2047 27.6057 12.2527 27.6057C12.3274 27.6057 12.3887 27.6377 12.4367 27.7017C12.4847 27.7603 12.5087 27.835 12.5087 27.9257C12.5087 28.0003 12.4874 28.0697 12.4447 28.1337C12.4074 28.1923 12.3407 28.2537 12.2447 28.3177C12.0847 28.4243 11.898 28.507 11.6847 28.5657C11.4714 28.6243 11.2554 28.6537 11.0367 28.6537ZM13.6399 28.6377C13.5225 28.6377 13.4239 28.6057 13.3439 28.5417C13.2692 28.4777 13.2319 28.3817 13.2319 28.2537V23.3097C13.2319 23.1817 13.2692 23.0857 13.3439 23.0217C13.4239 22.9523 13.5225 22.9177 13.6399 22.9177C13.7572 22.9177 13.8532 22.9523 13.9279 23.0217C14.0025 23.0857 14.0399 23.1817 14.0399 23.3097V28.2537C14.0399 28.3817 14.0025 28.4777 13.9279 28.5417C13.8532 28.6057 13.7572 28.6377 13.6399 28.6377ZM18.1934 24.6137C18.316 24.6137 18.412 24.6483 18.4814 24.7177C18.556 24.787 18.5934 24.883 18.5934 25.0057V28.2617C18.5934 28.3737 18.556 28.4643 18.4814 28.5337C18.4067 28.603 18.308 28.6377 18.1854 28.6377C18.0734 28.6377 17.9827 28.6057 17.9134 28.5417C17.844 28.4723 17.8094 28.3817 17.8094 28.2697V27.9657C17.6867 28.1897 17.516 28.3603 17.2974 28.4777C17.084 28.595 16.844 28.6537 16.5774 28.6537C15.628 28.6537 15.1534 28.131 15.1534 27.0857V25.0057C15.1534 24.883 15.188 24.787 15.2574 24.7177C15.332 24.6483 15.4334 24.6137 15.5614 24.6137C15.684 24.6137 15.78 24.6483 15.8494 24.7177C15.924 24.787 15.9614 24.883 15.9614 25.0057V27.0777C15.9614 27.3923 16.0254 27.6243 16.1534 27.7737C16.2814 27.923 16.4787 27.9977 16.7454 27.9977C17.06 27.9977 17.3107 27.8963 17.4974 27.6937C17.6894 27.491 17.7854 27.2217 17.7854 26.8857V25.0057C17.7854 24.8883 17.8227 24.795 17.8974 24.7257C17.972 24.651 18.0707 24.6137 18.1934 24.6137ZM20.1321 28.6377C20.0147 28.6377 19.9161 28.6057 19.8361 28.5417C19.7614 28.4777 19.7241 28.3817 19.7241 28.2537V25.0057C19.7241 24.8777 19.7614 24.7817 19.8361 24.7177C19.9161 24.6483 20.0147 24.6137 20.1321 24.6137C20.2494 24.6137 20.3454 24.6483 20.4201 24.7177C20.4947 24.7817 20.5321 24.8777 20.5321 25.0057V28.2537C20.5321 28.3817 20.4947 28.4777 20.4201 28.5417C20.3454 28.6057 20.2494 28.6377 20.1321 28.6377ZM20.1321 23.8297C19.9774 23.8297 19.8547 23.787 19.7641 23.7017C19.6734 23.6163 19.6281 23.5043 19.6281 23.3657C19.6281 23.227 19.6734 23.1177 19.7641 23.0377C19.8547 22.9523 19.9774 22.9097 20.1321 22.9097C20.2814 22.9097 20.4014 22.9523 20.4921 23.0377C20.5881 23.1177 20.6361 23.227 20.6361 23.3657C20.6361 23.5043 20.5907 23.6163 20.5001 23.7017C20.4094 23.787 20.2867 23.8297 20.1321 23.8297ZM23.7096 24.6137C23.9656 24.5977 24.0936 24.707 24.0936 24.9417C24.0936 25.059 24.0642 25.147 24.0056 25.2057C23.9469 25.2643 23.8456 25.299 23.7016 25.3097L23.4616 25.3337C23.1256 25.3657 22.8749 25.483 22.7096 25.6857C22.5496 25.8883 22.4696 26.1337 22.4696 26.4217V28.2537C22.4696 28.3817 22.4322 28.4777 22.3576 28.5417C22.2829 28.6057 22.1869 28.6377 22.0696 28.6377C21.9522 28.6377 21.8536 28.6057 21.7736 28.5417C21.6989 28.4777 21.6616 28.3817 21.6616 28.2537V24.9977C21.6616 24.875 21.6989 24.7817 21.7736 24.7177C21.8536 24.6483 21.9522 24.6137 22.0696 24.6137C22.1762 24.6137 22.2642 24.6483 22.3336 24.7177C22.4082 24.7817 22.4456 24.8723 22.4456 24.9897V25.3737C22.5522 25.139 22.7069 24.9603 22.9096 24.8377C23.1122 24.715 23.3416 24.643 23.5976 24.6217L23.7096 24.6137Z" fill="#AE1100"/>
<defs>
<clipPath id="clip0_81056_9667">
<rect width="17" height="16" fill="white" transform="translate(4 0.597656)"/>
</clipPath>
</defs>
</svg>
