<svg width="22" height="32" viewBox="0 0 22 32" fill="none" xmlns="http://www.w3.org/2000/svg">
<g clip-path="url(#clip0_81056_9662)">
<path d="M3.75 15.8475L8 14.8475L17.2929 5.55462C17.6834 5.16409 17.6834 4.53093 17.2929 4.1404L15.4571 2.30462C15.0666 1.91409 14.4334 1.91409 14.0429 2.30462L4.75 11.5975L3.75 15.8475Z" stroke="#747488" stroke-width="1.5" stroke-linecap="round" stroke-linejoin="round"/>
<path d="M18.25 15.8477H12.75" stroke="#747488" stroke-width="1.5" stroke-linecap="round" stroke-linejoin="round"/>
</g>
<path d="M1.064 28.5977C0.936 28.5977 0.834667 28.563 0.76 28.4937C0.690667 28.419 0.656 28.3203 0.656 28.1977V23.3577C0.656 23.235 0.690667 23.139 0.76 23.0697C0.834667 22.995 0.936 22.9577 1.064 22.9577H4.008C4.13067 22.9577 4.224 22.987 4.288 23.0457C4.35733 23.1043 4.392 23.187 4.392 23.2937C4.392 23.4003 4.35733 23.483 4.288 23.5417C4.224 23.595 4.13067 23.6217 4.008 23.6217H1.464V25.3977H3.848C3.97067 25.3977 4.064 25.427 4.128 25.4857C4.19733 25.5443 4.232 25.627 4.232 25.7337C4.232 25.8403 4.19733 25.923 4.128 25.9817C4.064 26.0403 3.97067 26.0697 3.848 26.0697H1.464V27.9337H4.008C4.264 27.9337 4.392 28.043 4.392 28.2617C4.392 28.3683 4.35733 28.451 4.288 28.5097C4.224 28.5683 4.13067 28.5977 4.008 28.5977H1.064ZM8.43169 22.9177C8.55435 22.9177 8.65302 22.9523 8.72769 23.0217C8.80235 23.091 8.83969 23.1843 8.83969 23.3017V28.2457C8.83969 28.3683 8.80235 28.4643 8.72769 28.5337C8.65835 28.603 8.56235 28.6377 8.43969 28.6377C8.31702 28.6377 8.21835 28.603 8.14369 28.5337C8.07435 28.4643 8.03969 28.3683 8.03969 28.2457V27.9257C7.92235 28.1603 7.75169 28.3417 7.52769 28.4697C7.30369 28.5923 7.04502 28.6537 6.75169 28.6537C6.41569 28.6537 6.11435 28.5683 5.84769 28.3977C5.58635 28.227 5.38102 27.987 5.23169 27.6777C5.08769 27.3683 5.01569 27.0137 5.01569 26.6137C5.01569 26.2083 5.08769 25.8537 5.23169 25.5497C5.38102 25.2457 5.58635 25.011 5.84769 24.8457C6.10902 24.6803 6.41035 24.5977 6.75169 24.5977C7.04502 24.5977 7.30102 24.6617 7.51969 24.7897C7.74369 24.9123 7.91435 25.0883 8.03169 25.3177V23.2857C8.03169 23.1737 8.06635 23.0857 8.13569 23.0217C8.21035 22.9523 8.30902 22.9177 8.43169 22.9177ZM6.94369 28.0137C7.29035 28.0137 7.55969 27.8937 7.75169 27.6537C7.94369 27.4137 8.03969 27.0723 8.03969 26.6297C8.03969 26.187 7.94369 25.8457 7.75169 25.6057C7.56502 25.3657 7.29569 25.2457 6.94369 25.2457C6.59169 25.2457 6.31702 25.3657 6.11969 25.6057C5.92769 25.8403 5.83169 26.1763 5.83169 26.6137C5.83169 27.051 5.93035 27.395 6.12769 27.6457C6.32502 27.891 6.59702 28.0137 6.94369 28.0137ZM10.3743 28.6377C10.2569 28.6377 10.1583 28.6057 10.0783 28.5417C10.0036 28.4777 9.96625 28.3817 9.96625 28.2537V25.0057C9.96625 24.8777 10.0036 24.7817 10.0783 24.7177C10.1583 24.6483 10.2569 24.6137 10.3743 24.6137C10.4916 24.6137 10.5876 24.6483 10.6623 24.7177C10.7369 24.7817 10.7743 24.8777 10.7743 25.0057V28.2537C10.7743 28.3817 10.7369 28.4777 10.6623 28.5417C10.5876 28.6057 10.4916 28.6377 10.3743 28.6377ZM10.3743 23.8297C10.2196 23.8297 10.0969 23.787 10.0063 23.7017C9.91558 23.6163 9.87025 23.5043 9.87025 23.3657C9.87025 23.227 9.91558 23.1177 10.0063 23.0377C10.0969 22.9523 10.2196 22.9097 10.3743 22.9097C10.5236 22.9097 10.6436 22.9523 10.7343 23.0377C10.8303 23.1177 10.8783 23.227 10.8783 23.3657C10.8783 23.5043 10.8329 23.6163 10.7423 23.7017C10.6516 23.787 10.5289 23.8297 10.3743 23.8297ZM13.9251 28.0217C14.0425 28.0323 14.1251 28.0643 14.1731 28.1177C14.2265 28.1657 14.2531 28.235 14.2531 28.3257C14.2531 28.4323 14.2105 28.515 14.1251 28.5737C14.0451 28.627 13.9251 28.6483 13.7651 28.6377L13.5491 28.6217C13.1171 28.5897 12.7945 28.459 12.5811 28.2297C12.3678 27.995 12.2611 27.651 12.2611 27.1977V25.3177H11.7811C11.5465 25.3177 11.4291 25.2137 11.4291 25.0057C11.4291 24.9097 11.4585 24.835 11.5171 24.7817C11.5811 24.723 11.6691 24.6937 11.7811 24.6937H12.2611V23.8697C12.2611 23.747 12.2958 23.651 12.3651 23.5817C12.4398 23.5123 12.5385 23.4777 12.6611 23.4777C12.7838 23.4777 12.8825 23.5123 12.9571 23.5817C13.0318 23.651 13.0691 23.747 13.0691 23.8697V24.6937H13.8611C13.9731 24.6937 14.0585 24.723 14.1171 24.7817C14.1811 24.835 14.2131 24.9097 14.2131 25.0057C14.2131 25.107 14.1811 25.1843 14.1171 25.2377C14.0585 25.291 13.9731 25.3177 13.8611 25.3177H13.0691V27.2537C13.0691 27.5043 13.1198 27.6883 13.2211 27.8057C13.3278 27.923 13.4878 27.9897 13.7011 28.0057L13.9251 28.0217ZM16.4734 24.5977C16.9908 24.5977 17.3748 24.7283 17.6254 24.9897C17.8814 25.251 18.0094 25.6483 18.0094 26.1817V28.2537C18.0094 28.3763 17.9748 28.4723 17.9054 28.5417C17.8361 28.6057 17.7401 28.6377 17.6174 28.6377C17.5001 28.6377 17.4068 28.603 17.3374 28.5337C17.2681 28.4643 17.2334 28.371 17.2334 28.2537V27.9577C17.1321 28.1817 16.9801 28.355 16.7774 28.4777C16.5801 28.595 16.3481 28.6537 16.0814 28.6537C15.8254 28.6537 15.5908 28.603 15.3774 28.5017C15.1694 28.395 15.0041 28.251 14.8814 28.0697C14.7588 27.8883 14.6974 27.683 14.6974 27.4537C14.6921 27.1657 14.7641 26.9417 14.9134 26.7817C15.0628 26.6163 15.3054 26.499 15.6414 26.4297C15.9774 26.355 16.4441 26.3177 17.0414 26.3177H17.2254V26.0857C17.2254 25.787 17.1641 25.571 17.0414 25.4377C16.9188 25.3043 16.7214 25.2377 16.4494 25.2377C16.2628 25.2377 16.0868 25.2617 15.9214 25.3097C15.7561 25.3577 15.5748 25.427 15.3774 25.5177C15.2334 25.5977 15.1321 25.6377 15.0734 25.6377C14.9934 25.6377 14.9268 25.6083 14.8734 25.5497C14.8254 25.491 14.8014 25.4163 14.8014 25.3257C14.8014 25.2457 14.8228 25.1763 14.8654 25.1177C14.9134 25.0537 14.9881 24.9923 15.0894 24.9337C15.2761 24.8323 15.4948 24.7523 15.7454 24.6937C15.9961 24.6297 16.2388 24.5977 16.4734 24.5977ZM16.2254 28.0537C16.5188 28.0537 16.7588 27.955 16.9454 27.7577C17.1321 27.555 17.2254 27.2963 17.2254 26.9817V26.7737H17.0814C16.6654 26.7737 16.3454 26.7923 16.1214 26.8297C15.8974 26.867 15.7374 26.931 15.6414 27.0217C15.5454 27.107 15.4974 27.2323 15.4974 27.3977C15.4974 27.5897 15.5668 27.747 15.7054 27.8697C15.8441 27.9923 16.0174 28.0537 16.2254 28.0537ZM21.1627 24.6137C21.4187 24.5977 21.5467 24.707 21.5467 24.9417C21.5467 25.059 21.5174 25.147 21.4587 25.2057C21.4 25.2643 21.2987 25.299 21.1547 25.3097L20.9147 25.3337C20.5787 25.3657 20.328 25.483 20.1627 25.6857C20.0027 25.8883 19.9227 26.1337 19.9227 26.4217V28.2537C19.9227 28.3817 19.8854 28.4777 19.8107 28.5417C19.736 28.6057 19.64 28.6377 19.5227 28.6377C19.4054 28.6377 19.3067 28.6057 19.2267 28.5417C19.152 28.4777 19.1147 28.3817 19.1147 28.2537V24.9977C19.1147 24.875 19.152 24.7817 19.2267 24.7177C19.3067 24.6483 19.4054 24.6137 19.5227 24.6137C19.6294 24.6137 19.7174 24.6483 19.7867 24.7177C19.8614 24.7817 19.8987 24.8723 19.8987 24.9897V25.3737C20.0054 25.139 20.16 24.9603 20.3627 24.8377C20.5654 24.715 20.7947 24.643 21.0507 24.6217L21.1627 24.6137Z" fill="#747488"/>
<defs>
<clipPath id="clip0_81056_9662">
<rect width="16" height="16" fill="white" transform="translate(3 0.597656)"/>
</clipPath>
</defs>
</svg>
