<svg width="19" height="21" viewBox="0 0 19 21" fill="none" xmlns="http://www.w3.org/2000/svg">
<path fill-rule="evenodd" clip-rule="evenodd" d="M1.01553 0.683387C1.5154 0.105538 2.32585 0.105538 2.82572 0.683387L9.60062 8.51516L16.3755 0.683387C16.8754 0.105538 17.6858 0.105538 18.1857 0.683387C18.6856 1.26124 18.6856 2.19812 18.1857 2.77597L11.4108 10.6077L18.1857 18.4395C18.6856 19.0174 18.6856 19.9542 18.1857 20.5321C17.6858 21.1099 16.8754 21.1099 16.3755 20.5321L9.60062 12.7003L2.82572 20.5321C2.32585 21.1099 1.5154 21.1099 1.01553 20.5321C0.515657 19.9542 0.515657 19.0174 1.01553 18.4395L7.79043 10.6077L1.01553 2.77597C0.515657 2.19812 0.515657 1.26124 1.01553 0.683387Z" fill="#3F3F55"/>
</svg>
