<svg width="24" height="29" viewBox="0 0 24 29" fill="none" xmlns="http://www.w3.org/2000/svg">
<path d="M6.25 3.8252L7.09115 13.4985C7.18102 14.532 8.04622 15.3252 9.08363 15.3252H13.9164C14.9538 15.3252 15.819 14.532 15.9088 13.4985L16.75 3.8252" stroke="#AE1100" stroke-width="1.5" stroke-linecap="round" stroke-linejoin="round"/>
<path d="M9.25 3.5752V2.8252C9.25 1.72063 10.1454 0.825195 11.25 0.825195H11.75C12.8546 0.825195 13.75 1.72063 13.75 2.8252V3.5752" stroke="#AE1100" stroke-width="1.5" stroke-linecap="round" stroke-linejoin="round"/>
<path d="M4.5 3.8252H18.5" stroke="#AE1100" stroke-width="1.5" stroke-linecap="round" stroke-linejoin="round"/>
<path d="M0.564 28.0752C0.436 28.0752 0.334667 28.0405 0.26 27.9712C0.190667 27.8965 0.156 27.7979 0.156 27.6752V22.8352C0.156 22.7125 0.190667 22.6165 0.26 22.5472C0.334667 22.4725 0.436 22.4352 0.564 22.4352H3.508C3.63067 22.4352 3.724 22.4645 3.788 22.5232C3.85733 22.5819 3.892 22.6645 3.892 22.7712C3.892 22.8779 3.85733 22.9605 3.788 23.0192C3.724 23.0725 3.63067 23.0992 3.508 23.0992H0.964V24.8752H3.348C3.47067 24.8752 3.564 24.9045 3.628 24.9632C3.69733 25.0219 3.732 25.1045 3.732 25.2112C3.732 25.3179 3.69733 25.4005 3.628 25.4592C3.564 25.5179 3.47067 25.5472 3.348 25.5472H0.964V27.4112H3.508C3.764 27.4112 3.892 27.5205 3.892 27.7392C3.892 27.8459 3.85733 27.9285 3.788 27.9872C3.724 28.0459 3.63067 28.0752 3.508 28.0752H0.564ZM8.02769 27.4672C8.10769 27.5472 8.14769 27.6405 8.14769 27.7472C8.14769 27.8485 8.11035 27.9365 8.03569 28.0112C7.96635 28.0805 7.88102 28.1152 7.77969 28.1152C7.67835 28.1152 7.58502 28.0699 7.49969 27.9792L6.27569 26.6032L5.05969 27.9792C4.97435 28.0699 4.88102 28.1152 4.77969 28.1152C4.67835 28.1152 4.59035 28.0779 4.51569 28.0032C4.44635 27.9285 4.41169 27.8405 4.41169 27.7392C4.41169 27.6379 4.44902 27.5472 4.52369 27.4672L5.78769 26.0752L4.58769 24.7392C4.50769 24.6485 4.46769 24.5579 4.46769 24.4672C4.46769 24.3659 4.50502 24.2805 4.57969 24.2112C4.65435 24.1365 4.73969 24.0992 4.83569 24.0992C4.93702 24.0992 5.03035 24.1445 5.11569 24.2352L6.27569 25.5472L7.43569 24.2352C7.52102 24.1445 7.61702 24.0992 7.72369 24.0992C7.81969 24.0992 7.90502 24.1365 7.97969 24.2112C8.05435 24.2805 8.09169 24.3659 8.09169 24.4672C8.09169 24.5685 8.05169 24.6592 7.97169 24.7392L6.77169 26.0752L8.02769 27.4672ZM10.5367 28.1312C10.158 28.1312 9.82469 28.0485 9.53669 27.8832C9.25402 27.7179 9.03269 27.4832 8.87269 27.1792C8.71802 26.8752 8.64069 26.5232 8.64069 26.1232C8.64069 25.7179 8.72069 25.3605 8.88069 25.0512C9.04602 24.7419 9.27535 24.5019 9.56869 24.3312C9.86202 24.1605 10.198 24.0752 10.5767 24.0752C10.7794 24.0752 10.982 24.1045 11.1847 24.1632C11.3927 24.2219 11.5767 24.3019 11.7367 24.4032C11.9074 24.5205 11.9927 24.6565 11.9927 24.8112C11.9927 24.9019 11.9687 24.9792 11.9207 25.0432C11.8727 25.1019 11.8114 25.1312 11.7367 25.1312C11.6887 25.1312 11.6407 25.1205 11.5927 25.0992C11.5447 25.0725 11.4834 25.0352 11.4087 24.9872C11.2754 24.9019 11.15 24.8379 11.0327 24.7952C10.9207 24.7472 10.7847 24.7232 10.6247 24.7232C10.262 24.7232 9.97935 24.8459 9.77669 25.0912C9.57935 25.3365 9.48069 25.6779 9.48069 26.1152C9.48069 26.5525 9.57935 26.8912 9.77669 27.1312C9.97402 27.3659 10.254 27.4832 10.6167 27.4832C10.7767 27.4832 10.918 27.4592 11.0407 27.4112C11.1634 27.3632 11.2887 27.2992 11.4167 27.2192C11.4754 27.1819 11.534 27.1499 11.5927 27.1232C11.6514 27.0965 11.7047 27.0832 11.7527 27.0832C11.8274 27.0832 11.8887 27.1152 11.9367 27.1792C11.9847 27.2379 12.0087 27.3125 12.0087 27.4032C12.0087 27.4779 11.9874 27.5472 11.9447 27.6112C11.9074 27.6699 11.8407 27.7312 11.7447 27.7952C11.5847 27.9019 11.398 27.9845 11.1847 28.0432C10.9714 28.1019 10.7554 28.1312 10.5367 28.1312ZM13.1399 28.1152C13.0225 28.1152 12.9239 28.0832 12.8439 28.0192C12.7692 27.9552 12.7319 27.8592 12.7319 27.7312V22.7872C12.7319 22.6592 12.7692 22.5632 12.8439 22.4992C12.9239 22.4299 13.0225 22.3952 13.1399 22.3952C13.2572 22.3952 13.3532 22.4299 13.4279 22.4992C13.5025 22.5632 13.5399 22.6592 13.5399 22.7872V27.7312C13.5399 27.8592 13.5025 27.9552 13.4279 28.0192C13.3532 28.0832 13.2572 28.1152 13.1399 28.1152ZM17.6934 24.0912C17.816 24.0912 17.912 24.1259 17.9814 24.1952C18.056 24.2645 18.0934 24.3605 18.0934 24.4832V27.7392C18.0934 27.8512 18.056 27.9419 17.9814 28.0112C17.9067 28.0805 17.808 28.1152 17.6854 28.1152C17.5734 28.1152 17.4827 28.0832 17.4134 28.0192C17.344 27.9499 17.3094 27.8592 17.3094 27.7472V27.4432C17.1867 27.6672 17.016 27.8379 16.7974 27.9552C16.584 28.0725 16.344 28.1312 16.0774 28.1312C15.128 28.1312 14.6534 27.6085 14.6534 26.5632V24.4832C14.6534 24.3605 14.688 24.2645 14.7574 24.1952C14.832 24.1259 14.9334 24.0912 15.0614 24.0912C15.184 24.0912 15.28 24.1259 15.3494 24.1952C15.424 24.2645 15.4614 24.3605 15.4614 24.4832V26.5552C15.4614 26.8699 15.5254 27.1019 15.6534 27.2512C15.7814 27.4005 15.9787 27.4752 16.2454 27.4752C16.56 27.4752 16.8107 27.3739 16.9974 27.1712C17.1894 26.9685 17.2854 26.6992 17.2854 26.3632V24.4832C17.2854 24.3659 17.3227 24.2725 17.3974 24.2032C17.472 24.1285 17.5707 24.0912 17.6934 24.0912ZM19.6321 28.1152C19.5147 28.1152 19.4161 28.0832 19.3361 28.0192C19.2614 27.9552 19.2241 27.8592 19.2241 27.7312V24.4832C19.2241 24.3552 19.2614 24.2592 19.3361 24.1952C19.4161 24.1259 19.5147 24.0912 19.6321 24.0912C19.7494 24.0912 19.8454 24.1259 19.9201 24.1952C19.9947 24.2592 20.0321 24.3552 20.0321 24.4832V27.7312C20.0321 27.8592 19.9947 27.9552 19.9201 28.0192C19.8454 28.0832 19.7494 28.1152 19.6321 28.1152ZM19.6321 23.3072C19.4774 23.3072 19.3547 23.2645 19.2641 23.1792C19.1734 23.0939 19.1281 22.9819 19.1281 22.8432C19.1281 22.7045 19.1734 22.5952 19.2641 22.5152C19.3547 22.4299 19.4774 22.3872 19.6321 22.3872C19.7814 22.3872 19.9014 22.4299 19.9921 22.5152C20.0881 22.5952 20.1361 22.7045 20.1361 22.8432C20.1361 22.9819 20.0907 23.0939 20.0001 23.1792C19.9094 23.2645 19.7867 23.3072 19.6321 23.3072ZM23.2096 24.0912C23.4656 24.0752 23.5936 24.1845 23.5936 24.4192C23.5936 24.5365 23.5642 24.6245 23.5056 24.6832C23.4469 24.7419 23.3456 24.7765 23.2016 24.7872L22.9616 24.8112C22.6256 24.8432 22.3749 24.9605 22.2096 25.1632C22.0496 25.3659 21.9696 25.6112 21.9696 25.8992V27.7312C21.9696 27.8592 21.9322 27.9552 21.8576 28.0192C21.7829 28.0832 21.6869 28.1152 21.5696 28.1152C21.4522 28.1152 21.3536 28.0832 21.2736 28.0192C21.1989 27.9552 21.1616 27.8592 21.1616 27.7312V24.4752C21.1616 24.3525 21.1989 24.2592 21.2736 24.1952C21.3536 24.1259 21.4522 24.0912 21.5696 24.0912C21.6762 24.0912 21.7642 24.1259 21.8336 24.1952C21.9082 24.2592 21.9456 24.3499 21.9456 24.4672V24.8512C22.0522 24.6165 22.2069 24.4379 22.4096 24.3152C22.6122 24.1925 22.8416 24.1205 23.0976 24.0992L23.2096 24.0912Z" fill="#AE1100"/>
</svg>
