<svg width="92" height="51" viewBox="0 0 92 51" fill="none" xmlns="http://www.w3.org/2000/svg">
<rect width="92" height="51" rx="8" fill="white"/>
<g clip-path="url(#clip0_82847_45021)">
<path d="M18.75 25.25L23 24.25L32.2929 14.9571C32.6834 14.5666 32.6834 13.9334 32.2929 13.5429L30.4571 11.7071C30.0666 11.3166 29.4334 11.3166 29.0429 11.7071L19.75 21L18.75 25.25Z" stroke="#747488" stroke-width="1.5" stroke-linecap="round" stroke-linejoin="round"/>
<path d="M33.25 25.25H27.75" stroke="#747488" stroke-width="1.5" stroke-linecap="round" stroke-linejoin="round"/>
</g>
<path d="M16.104 38C15.96 38 15.848 37.9627 15.768 37.888C15.6933 37.808 15.656 37.696 15.656 37.552V32.808C15.656 32.664 15.6933 32.5547 15.768 32.48C15.848 32.4 15.96 32.36 16.104 32.36H19.024C19.136 32.36 19.2213 32.3893 19.28 32.448C19.3387 32.5013 19.368 32.5813 19.368 32.688C19.368 32.8 19.3387 32.8853 19.28 32.944C19.2213 33.0027 19.136 33.032 19.024 33.032H16.456V34.8H18.848C18.9653 34.8 19.0507 34.8293 19.104 34.888C19.1627 34.9467 19.192 35.0293 19.192 35.136C19.192 35.248 19.1627 35.3333 19.104 35.392C19.0507 35.4453 18.9653 35.472 18.848 35.472H16.456V37.328H19.024C19.136 37.328 19.2213 37.3573 19.28 37.416C19.3387 37.4747 19.368 37.5573 19.368 37.664C19.368 37.776 19.3387 37.8613 19.28 37.92C19.2213 37.9733 19.136 38 19.024 38H16.104ZM21.7357 38.072C21.3944 38.072 21.093 37.992 20.8317 37.832C20.5757 37.6667 20.3757 37.432 20.2317 37.128C20.0877 36.8187 20.0157 36.4587 20.0157 36.048C20.0157 35.6267 20.0877 35.2667 20.2317 34.968C20.3757 34.6693 20.5757 34.4373 20.8317 34.272C21.093 34.1067 21.3944 34.024 21.7357 34.024C22.077 34.024 22.3704 34.1093 22.6157 34.28C22.8664 34.4453 23.0344 34.6693 23.1197 34.952H23.0317V32.712C23.0317 32.5787 23.0664 32.4773 23.1357 32.408C23.205 32.3387 23.3037 32.304 23.4317 32.304C23.5597 32.304 23.6584 32.3387 23.7277 32.408C23.8024 32.4773 23.8397 32.5787 23.8397 32.712V37.648C23.8397 37.776 23.805 37.8773 23.7357 37.952C23.6664 38.0213 23.5677 38.056 23.4397 38.056C23.3117 38.056 23.213 38.0213 23.1437 37.952C23.0744 37.8773 23.0397 37.776 23.0397 37.648V36.944L23.1277 37.12C23.0424 37.408 22.8744 37.64 22.6237 37.816C22.3784 37.9867 22.0824 38.072 21.7357 38.072ZM21.9437 37.448C22.1624 37.448 22.3544 37.3947 22.5197 37.288C22.685 37.1813 22.813 37.024 22.9037 36.816C22.9997 36.608 23.0477 36.352 23.0477 36.048C23.0477 35.5893 22.9464 35.2427 22.7437 35.008C22.541 34.7733 22.2744 34.656 21.9437 34.656C21.7197 34.656 21.525 34.7093 21.3597 34.816C21.1944 34.9173 21.0637 35.072 20.9677 35.28C20.877 35.488 20.8317 35.744 20.8317 36.048C20.8317 36.5013 20.933 36.848 21.1357 37.088C21.3384 37.328 21.6077 37.448 21.9437 37.448ZM25.3743 38.048C25.2463 38.048 25.1476 38.0107 25.0783 37.936C25.0089 37.856 24.9743 37.7467 24.9743 37.608V34.488C24.9743 34.3493 25.0089 34.2427 25.0783 34.168C25.1476 34.0933 25.2463 34.056 25.3743 34.056C25.5023 34.056 25.6009 34.0933 25.6703 34.168C25.7449 34.2427 25.7823 34.3493 25.7823 34.488V37.608C25.7823 37.7467 25.7476 37.856 25.6783 37.936C25.6089 38.0107 25.5076 38.048 25.3743 38.048ZM25.3743 33.224C25.2143 33.224 25.0889 33.184 24.9983 33.104C24.9129 33.024 24.8703 32.912 24.8703 32.768C24.8703 32.6187 24.9129 32.5067 24.9983 32.432C25.0889 32.352 25.2143 32.312 25.3743 32.312C25.5343 32.312 25.6569 32.352 25.7423 32.432C25.8329 32.5067 25.8783 32.6187 25.8783 32.768C25.8783 32.912 25.8329 33.024 25.7423 33.104C25.6569 33.184 25.5343 33.224 25.3743 33.224ZM28.5836 38.072C28.2636 38.072 27.9942 38.016 27.7756 37.904C27.5569 37.792 27.3942 37.6267 27.2876 37.408C27.1809 37.1893 27.1276 36.9227 27.1276 36.608V34.72H26.6476C26.5409 34.72 26.4582 34.6933 26.3996 34.64C26.3409 34.5813 26.3116 34.504 26.3116 34.408C26.3116 34.3067 26.3409 34.2293 26.3996 34.176C26.4582 34.1227 26.5409 34.096 26.6476 34.096H27.1276V33.272C27.1276 33.1387 27.1622 33.0373 27.2316 32.968C27.3062 32.8987 27.4076 32.864 27.5356 32.864C27.6636 32.864 27.7622 32.8987 27.8316 32.968C27.9009 33.0373 27.9356 33.1387 27.9356 33.272V34.096H28.8716C28.9782 34.096 29.0609 34.1227 29.1196 34.176C29.1782 34.2293 29.2076 34.3067 29.2076 34.408C29.2076 34.504 29.1782 34.5813 29.1196 34.64C29.0609 34.6933 28.9782 34.72 28.8716 34.72H27.9356V36.544C27.9356 36.8267 27.9942 37.04 28.1116 37.184C28.2342 37.328 28.4316 37.4 28.7036 37.4C28.7996 37.4 28.8822 37.392 28.9516 37.376C29.0262 37.3547 29.0876 37.3413 29.1356 37.336C29.1942 37.336 29.2422 37.3573 29.2796 37.4C29.3169 37.4373 29.3356 37.512 29.3356 37.624C29.3356 37.704 29.3196 37.7787 29.2876 37.848C29.2609 37.9173 29.2102 37.9627 29.1356 37.984C29.0716 38.0053 28.9836 38.024 28.8716 38.04C28.7649 38.0613 28.6689 38.072 28.5836 38.072ZM31.0894 38.072C30.8174 38.072 30.5721 38.0187 30.3534 37.912C30.1401 37.8053 29.9721 37.6613 29.8494 37.48C29.7268 37.2987 29.6654 37.0933 29.6654 36.864C29.6654 36.576 29.7374 36.3493 29.8814 36.184C30.0308 36.0133 30.2734 35.8933 30.6094 35.824C30.9508 35.7493 31.4094 35.712 31.9854 35.712H32.3614V36.208H31.9934C31.6094 36.208 31.3054 36.2267 31.0814 36.264C30.8574 36.3013 30.6974 36.3653 30.6014 36.456C30.5108 36.5413 30.4654 36.6613 30.4654 36.816C30.4654 37.0187 30.5348 37.184 30.6734 37.312C30.8121 37.4347 31.0041 37.496 31.2494 37.496C31.4468 37.496 31.6201 37.4507 31.7694 37.36C31.9188 37.264 32.0361 37.136 32.1214 36.976C32.2121 36.816 32.2574 36.632 32.2574 36.424V35.504C32.2574 35.2 32.1934 34.9813 32.0654 34.848C31.9374 34.7147 31.7268 34.648 31.4334 34.648C31.2628 34.648 31.0841 34.6693 30.8974 34.712C30.7161 34.7547 30.5268 34.8267 30.3294 34.928C30.2388 34.9707 30.1614 34.984 30.0974 34.968C30.0334 34.952 29.9828 34.9173 29.9454 34.864C29.9081 34.8053 29.8868 34.744 29.8814 34.68C29.8814 34.6107 29.8974 34.544 29.9294 34.48C29.9668 34.416 30.0281 34.368 30.1134 34.336C30.3481 34.224 30.5801 34.144 30.8094 34.096C31.0388 34.048 31.2548 34.024 31.4574 34.024C31.8148 34.024 32.1081 34.08 32.3374 34.192C32.5721 34.304 32.7454 34.4747 32.8574 34.704C32.9694 34.9333 33.0254 35.2293 33.0254 35.592V37.648C33.0254 37.776 32.9934 37.8773 32.9294 37.952C32.8654 38.0213 32.7721 38.056 32.6494 38.056C32.5321 38.056 32.4388 38.0213 32.3694 37.952C32.3001 37.8773 32.2654 37.776 32.2654 37.648V37.128H32.3374C32.2948 37.3253 32.2148 37.496 32.0974 37.64C31.9854 37.7787 31.8441 37.8853 31.6734 37.96C31.5028 38.0347 31.3081 38.072 31.0894 38.072ZM34.5463 38.056C34.413 38.056 34.3116 38.0213 34.2423 37.952C34.173 37.8773 34.1383 37.776 34.1383 37.648V34.448C34.1383 34.3147 34.173 34.2133 34.2423 34.144C34.3116 34.0747 34.4076 34.04 34.5303 34.04C34.6583 34.04 34.7543 34.0747 34.8183 34.144C34.8876 34.2133 34.9223 34.3147 34.9223 34.448V35.032H34.8423C34.9276 34.712 35.085 34.4693 35.3143 34.304C35.5436 34.1387 35.837 34.0427 36.1943 34.016C36.2903 34.0107 36.365 34.0347 36.4183 34.088C36.477 34.1413 36.509 34.224 36.5143 34.336C36.525 34.448 36.501 34.5387 36.4423 34.608C36.3836 34.672 36.293 34.7093 36.1703 34.72L36.0183 34.736C35.6716 34.768 35.4076 34.8773 35.2263 35.064C35.045 35.2507 34.9543 35.5067 34.9543 35.832V37.648C34.9543 37.776 34.9196 37.8773 34.8503 37.952C34.7863 38.0213 34.685 38.056 34.5463 38.056Z" fill="#747488"/>
<path d="M68.75 16.75L72.25 20L68.75 23.25" stroke="#747488" stroke-width="1.5" stroke-linecap="round" stroke-linejoin="round"/>
<path d="M72 20H63.75" stroke="#747488" stroke-width="1.5" stroke-linecap="round" stroke-linejoin="round"/>
<path d="M68.25 12.75H59.75C58.6454 12.75 57.75 13.6454 57.75 14.75V25.25C57.75 26.3546 58.6454 27.25 59.75 27.25H68.25" stroke="#747488" stroke-width="1.5" stroke-linecap="round" stroke-linejoin="round"/>
<path d="M60.036 40.072C59.7907 40.072 59.5507 40.0533 59.316 40.016C59.0813 39.9787 58.86 39.9227 58.652 39.848C58.444 39.768 58.2573 39.672 58.092 39.56C58.012 39.5013 57.956 39.4347 57.924 39.36C57.8973 39.2853 57.8893 39.2133 57.9 39.144C57.916 39.0693 57.948 39.0053 57.996 38.952C58.044 38.8987 58.1027 38.8667 58.172 38.856C58.2413 38.84 58.3187 38.8613 58.404 38.92C58.644 39.0747 58.8973 39.1893 59.164 39.264C59.4307 39.3333 59.7213 39.368 60.036 39.368C60.4893 39.368 60.8227 39.288 61.036 39.128C61.2547 38.9627 61.364 38.7493 61.364 38.488C61.364 38.2747 61.2867 38.1067 61.132 37.984C60.9773 37.856 60.7187 37.7547 60.356 37.68L59.5 37.504C58.9933 37.3973 58.6147 37.2213 58.364 36.976C58.1187 36.7307 57.996 36.4 57.996 35.984C57.996 35.7333 58.0467 35.504 58.148 35.296C58.2547 35.088 58.4013 34.9093 58.588 34.76C58.7747 34.6053 58.9987 34.488 59.26 34.408C59.5213 34.328 59.8067 34.288 60.116 34.288C60.4467 34.288 60.756 34.3307 61.044 34.416C61.3373 34.5013 61.5987 34.632 61.828 34.808C61.8973 34.856 61.9427 34.9173 61.964 34.992C61.9907 35.0613 61.996 35.1307 61.98 35.2C61.9693 35.2693 61.94 35.328 61.892 35.376C61.844 35.424 61.7827 35.4533 61.708 35.464C61.6333 35.4693 61.5507 35.4427 61.46 35.384C61.252 35.2453 61.0387 35.1467 60.82 35.088C60.6067 35.024 60.3693 34.992 60.108 34.992C59.8467 34.992 59.6173 35.032 59.42 35.112C59.228 35.192 59.0787 35.304 58.972 35.448C58.8707 35.592 58.82 35.7627 58.82 35.96C58.82 36.184 58.892 36.3627 59.036 36.496C59.18 36.6293 59.42 36.7307 59.756 36.8L60.604 36.976C61.1373 37.088 61.5347 37.2613 61.796 37.496C62.0573 37.7307 62.188 38.0427 62.188 38.432C62.188 38.6827 62.1373 38.9093 62.036 39.112C61.9347 39.3093 61.7907 39.48 61.604 39.624C61.4173 39.768 61.1907 39.88 60.924 39.96C60.6627 40.0347 60.3667 40.072 60.036 40.072ZM64.2926 40.072C64.0206 40.072 63.7752 40.0187 63.5566 39.912C63.3432 39.8053 63.1752 39.6613 63.0526 39.48C62.9299 39.2987 62.8686 39.0933 62.8686 38.864C62.8686 38.576 62.9406 38.3493 63.0846 38.184C63.2339 38.0133 63.4766 37.8933 63.8126 37.824C64.1539 37.7493 64.6126 37.712 65.1886 37.712H65.5646V38.208H65.1966C64.8126 38.208 64.5086 38.2267 64.2846 38.264C64.0606 38.3013 63.9006 38.3653 63.8046 38.456C63.7139 38.5413 63.6686 38.6613 63.6686 38.816C63.6686 39.0187 63.7379 39.184 63.8766 39.312C64.0152 39.4347 64.2072 39.496 64.4526 39.496C64.6499 39.496 64.8232 39.4507 64.9726 39.36C65.1219 39.264 65.2392 39.136 65.3246 38.976C65.4152 38.816 65.4606 38.632 65.4606 38.424V37.504C65.4606 37.2 65.3966 36.9813 65.2686 36.848C65.1406 36.7147 64.9299 36.648 64.6366 36.648C64.4659 36.648 64.2872 36.6693 64.1006 36.712C63.9192 36.7547 63.7299 36.8267 63.5326 36.928C63.4419 36.9707 63.3646 36.984 63.3006 36.968C63.2366 36.952 63.1859 36.9173 63.1486 36.864C63.1112 36.8053 63.0899 36.744 63.0846 36.68C63.0846 36.6107 63.1006 36.544 63.1326 36.48C63.1699 36.416 63.2312 36.368 63.3166 36.336C63.5512 36.224 63.7832 36.144 64.0126 36.096C64.2419 36.048 64.4579 36.024 64.6606 36.024C65.0179 36.024 65.3112 36.08 65.5406 36.192C65.7752 36.304 65.9486 36.4747 66.0606 36.704C66.1726 36.9333 66.2286 37.2293 66.2286 37.592V39.648C66.2286 39.776 66.1966 39.8773 66.1326 39.952C66.0686 40.0213 65.9752 40.056 65.8526 40.056C65.7352 40.056 65.6419 40.0213 65.5726 39.952C65.5032 39.8773 65.4686 39.776 65.4686 39.648V39.128H65.5406C65.4979 39.3253 65.4179 39.496 65.3006 39.64C65.1886 39.7787 65.0472 39.8853 64.8766 39.96C64.7059 40.0347 64.5112 40.072 64.2926 40.072ZM67.7414 40.048C67.6134 40.048 67.5148 40.0107 67.4454 39.936C67.3761 39.856 67.3414 39.7467 67.3414 39.608V36.488C67.3414 36.3493 67.3761 36.2427 67.4454 36.168C67.5148 36.0933 67.6134 36.056 67.7414 36.056C67.8694 36.056 67.9681 36.0933 68.0374 36.168C68.1121 36.2427 68.1494 36.3493 68.1494 36.488V39.608C68.1494 39.7467 68.1148 39.856 68.0454 39.936C67.9761 40.0107 67.8748 40.048 67.7414 40.048ZM67.7414 35.224C67.5814 35.224 67.4561 35.184 67.3654 35.104C67.2801 35.024 67.2374 34.912 67.2374 34.768C67.2374 34.6187 67.2801 34.5067 67.3654 34.432C67.4561 34.352 67.5814 34.312 67.7414 34.312C67.9014 34.312 68.0241 34.352 68.1094 34.432C68.2001 34.5067 68.2454 34.6187 68.2454 34.768C68.2454 34.912 68.2001 35.024 68.1094 35.104C68.0241 35.184 67.9014 35.224 67.7414 35.224ZM69.6948 40.056C69.5614 40.056 69.4601 40.0213 69.3908 39.952C69.3214 39.8773 69.2868 39.776 69.2868 39.648V36.448C69.2868 36.3147 69.3214 36.2133 69.3908 36.144C69.4601 36.0747 69.5561 36.04 69.6788 36.04C69.8068 36.04 69.9028 36.0747 69.9668 36.144C70.0361 36.2133 70.0708 36.3147 70.0708 36.448V37.032H69.9908C70.0761 36.712 70.2334 36.4693 70.4628 36.304C70.6921 36.1387 70.9854 36.0427 71.3428 36.016C71.4388 36.0107 71.5134 36.0347 71.5668 36.088C71.6254 36.1413 71.6574 36.224 71.6628 36.336C71.6734 36.448 71.6494 36.5387 71.5908 36.608C71.5321 36.672 71.4414 36.7093 71.3188 36.72L71.1668 36.736C70.8201 36.768 70.5561 36.8773 70.3748 37.064C70.1934 37.2507 70.1028 37.5067 70.1028 37.832V39.648C70.1028 39.776 70.0681 39.8773 69.9988 39.952C69.9348 40.0213 69.8334 40.056 69.6948 40.056Z" fill="#747488"/>
<defs>
<clipPath id="clip0_82847_45021">
<rect width="16" height="16" fill="white" transform="translate(18 10)"/>
</clipPath>
</defs>
</svg>
